<?xml version="1.0" encoding="UTF-8"?>
<svg version="1.1" xmlns="http://www.w3.org/2000/svg" width="512" height="512">
<path d="M0 0 C168.96 0 337.92 0 512 0 C512 168.96 512 337.92 512 512 C343.04 512 174.08 512 0 512 C0 343.04 0 174.08 0 0 Z " fill="#020617" transform="translate(0,0)"/>
<path d="M0 0 C2.80963571 0.00008131 5.61910854 -0.00688441 8.42871094 -0.02050781 C35.26009698 -0.14844563 35.26009698 -0.14844563 47.13378906 1.07202148 C47.89356049 1.14975296 48.65333191 1.22748444 49.43612671 1.30757141 C52.93917721 1.73295547 54.85304053 2.19084538 57.84472656 4.18530273 C57.43335449 4.62173096 57.02198242 5.05815918 56.59814453 5.5078125 C54.63830267 7.58746172 52.67894583 9.66756696 50.71972656 11.74780273 C49.99922119 12.5127002 49.27871582 13.27759766 48.53637695 14.06567383 C44.98553109 17.83803392 41.43973727 21.61477668 37.91113281 25.40795898 C37.29834473 26.06658936 36.68555664 26.72521973 36.05419922 27.40380859 C34.91079198 28.634019 33.76845909 29.86522922 32.62744141 31.09765625 C29.93254677 33.99703373 27.2005511 36.83749944 24.37988281 39.61499023 C21.95192228 42.02186426 19.6652667 44.49706782 17.43457031 47.08764648 C13.61831424 51.50641328 9.545467 55.63191103 5.40722656 59.74780273 C4.69501953 60.46387695 3.9828125 61.17995117 3.24902344 61.91772461 C-0.83743738 65.99676224 -5.0234309 69.89558099 -9.39770508 73.6640625 C-11.53462851 75.51364854 -13.59073589 77.44307641 -15.65527344 79.37280273 C-44.81962782 105.59396539 -78.82325507 122.31696717 -118.40527344 122.56030273 C-119.08637177 122.5682486 -119.76747009 122.57619446 -120.46920776 122.5843811 C-137.73634155 122.7390137 -152.13810039 119.6544634 -164.89355469 107.57983398 C-173.0124048 98.98422929 -176.82650705 90.37892966 -176.49902344 78.54858398 C-174.99285016 63.8120477 -166.36515922 51.41255226 -156.15527344 41.18530273 C-155.47980469 40.49823242 -154.80433594 39.81116211 -154.10839844 39.10327148 C-115.12817721 1.95482757 -50.22780211 -0.00749477 0 0 Z " fill="#020617" transform="translate(217.1552734375,248.814697265625)"/>
<path d="M0 0 C1.17891815 0.10641815 2.3578363 0.2128363 3.57247925 0.32247925 C15.74965213 1.43914103 27.85207756 2.73200541 39.93251038 4.63504028 C47.90914339 5.88245879 55.89169467 6.7241049 63.9375 7.375 C64.70126953 7.43753967 65.46503906 7.50007935 66.25195312 7.56451416 C79.62128128 8.62726917 92.96612849 9.00879053 106.375 9.0625 C107.25004181 9.07026459 108.12508362 9.07802917 109.02664185 9.08602905 C118.81834421 9.15488642 128.38758904 8.69808753 138.09375 7.3515625 C138.94078491 7.23533539 139.78781982 7.11910828 140.66052246 6.99935913 C147.4576752 5.96199562 154.09932061 4.53795293 159.875 0.6875 C163.0625 1.0625 163.0625 1.0625 165.875 1.6875 C166.32805881 6.30869982 166.59612557 9.58177413 164 13.5625 C152.8541401 21.14168473 137.6540363 19.64533335 124.875 17.6875 C97.34658811 15.47507164 72.58192724 31.3085538 51.875 47.6875 C51.26156738 48.17089844 50.64813477 48.65429688 50.01611328 49.15234375 C47.98311584 50.75990002 45.95885753 52.3778364 43.9375 54 C43.02581055 54.7266687 43.02581055 54.7266687 42.09570312 55.46801758 C29.11562193 66.00333635 17.40665004 77.99663511 5.61621094 89.81591797 C2.98746591 92.45005982 0.35336822 95.07876504 -2.28125 97.70703125 C-3.97688349 99.40332503 -5.67220703 101.0999287 -7.3671875 102.796875 C-8.14335419 103.57101746 -8.91952087 104.34515991 -9.71920776 105.14276123 C-14.38730857 109.83079187 -18.83700924 114.64913492 -23.125 119.6875 C-7.30962542 124.02697619 -7.30962542 124.02697619 8.875 124.6875 C11.14227731 122.78381493 11.14227731 122.78381493 13 120.0625 C13.76957031 119.05703125 14.53914063 118.0515625 15.33203125 117.015625 C15.94618896 116.20254883 15.94618896 116.20254883 16.57275391 115.37304688 C18.84336804 112.43410425 21.26495435 109.62646132 23.6875 106.8125 C24.19144287 106.22484863 24.69538574 105.63719727 25.21459961 105.03173828 C29.62514404 99.91715345 34.18213283 94.94968118 38.79296875 90.015625 C41.25732679 87.37660455 43.65852196 84.68583198 46.05859375 81.98828125 C51.11689937 76.35902143 56.40134566 70.97738422 61.75 65.625 C62.66652344 64.69623047 63.58304687 63.76746094 64.52734375 62.81054688 C70.66241121 56.66253623 77.06054169 51.06794389 83.875 45.6875 C85.00550262 44.7711963 86.13576637 43.85459767 87.265625 42.9375 C115.12416857 21.01602309 115.12416857 21.01602309 129.875 21.6875 C128.72460919 22.83789081 127.57388266 23.98794707 126.421875 25.13671875 C125.36459702 26.19666662 124.31274005 27.26204233 123.265625 28.33203125 C120.29462703 31.35072872 117.27941441 34.24357132 114.0625 37 C107.17270113 42.95513624 100.82368361 49.45100854 94.91015625 56.37109375 C92.72687446 58.85609587 90.47584617 61.26616655 88.21166992 63.67724609 C82.94871854 69.28175259 77.92500811 74.9711895 73.1171875 80.9765625 C70.63591246 83.976571 68.02594543 86.83863434 65.375 89.6875 C60.77761701 94.64028968 56.45521932 99.76049824 52.22216797 105.02685547 C50.62171793 106.99971903 49.0012554 108.95526243 47.37890625 110.91015625 C46.75991455 111.65692627 46.14092285 112.40369629 45.50317383 113.1730957 C44.28187251 114.64554725 43.05913066 116.11680558 41.8347168 117.58666992 C38.3195507 121.83501202 35.02623101 126.16204795 31.875 130.6875 C32.45765625 130.802146 33.0403125 130.91679199 33.640625 131.03491211 C40.39987401 132.37467285 47.14007361 133.79321554 53.875 135.25 C55.42767578 135.58161133 55.42767578 135.58161133 57.01171875 135.91992188 C57.99785156 136.13326172 58.98398437 136.34660156 60 136.56640625 C60.88945312 136.7579126 61.77890625 136.94941895 62.6953125 137.14672852 C64.875 137.6875 64.875 137.6875 66.875 138.6875 C66.875 140.0075 66.875 141.3275 66.875 142.6875 C58.97230882 143.08684992 51.82468879 141.88528597 44.125 140.1875 C41.9438768 139.71334278 39.76160919 139.24441331 37.578125 138.78125 C36.62583008 138.57177734 35.67353516 138.36230469 34.69238281 138.14648438 C29.20782787 137.08005851 29.20782787 137.08005851 24.20678711 138.87060547 C23.56108765 139.70422607 23.56108765 139.70422607 22.90234375 140.5546875 C22.40210693 141.18366943 21.90187012 141.81265137 21.38647461 142.46069336 C20.60735718 143.50108765 20.60735718 143.50108765 19.8125 144.5625 C18.97440796 145.63866577 18.97440796 145.63866577 18.11938477 146.73657227 C16.34500777 149.03494302 14.60509842 151.3556493 12.875 153.6875 C12.32328125 154.43016113 11.7715625 155.17282227 11.203125 155.93798828 C7.90084399 160.41080997 4.66314376 164.92679394 1.45263672 169.46582031 C-0.0694435 171.60926352 -1.60817522 173.73962175 -3.15234375 175.8671875 C-23.09516017 201.50598407 -23.09516017 201.50598407 -32.375 231.625 C-32.40078125 232.47964844 -32.4265625 233.33429688 -32.453125 234.21484375 C-32.03439074 237.37030551 -31.57091585 238.61232336 -29.125 240.6875 C-23.07286441 241.44877492 -19.03067307 240.22598252 -13.75 237.1875 C-13.10224609 236.8280127 -12.45449219 236.46852539 -11.78710938 236.09814453 C-6.09015241 232.84940815 -1.06071412 229.00061033 3.875 224.6875 C4.50792969 224.17445313 5.14085937 223.66140625 5.79296875 223.1328125 C10.35276513 219.4084755 14.06034104 215.15436705 17.875 210.6875 C19.61465545 208.67693638 21.36241485 206.67757751 23.125 204.6875 C23.95515625 203.73875 24.7853125 202.79 25.640625 201.8125 C27.875 199.6875 27.875 199.6875 30.875 199.6875 C30.875 210.6980984 20.16675283 218.59135371 13 225.875 C11.88637085 227.01545776 11.88637085 227.01545776 10.75024414 228.17895508 C4.12173718 234.79735871 -3.10612641 240.71328758 -11.75 244.5 C-12.58789062 244.87769531 -13.42578125 245.25539063 -14.2890625 245.64453125 C-21.02529696 248.12190673 -27.12391889 249.050483 -34.25 249.0625 C-35.02214844 249.08699219 -35.79429687 249.11148438 -36.58984375 249.13671875 C-41.92001645 249.16395984 -44.88833187 248.18930111 -49.125 244.6875 C-54.23845875 238.88303332 -54.71679039 234.55968958 -54.51953125 226.94921875 C-52.36297834 193.50359778 -17.61752394 157.8905997 1.875 132.6875 C-9.05877891 130.17255248 -20.03584568 128.35441979 -31.125 126.6875 C-31.3928833 127.27756836 -31.6607666 127.86763672 -31.93676758 128.47558594 C-33.13673483 130.70934458 -34.39112013 132.25023425 -36.13671875 134.078125 C-36.72606201 134.70098389 -37.31540527 135.32384277 -37.92260742 135.96557617 C-38.54627197 136.61631104 -39.16993652 137.2670459 -39.8125 137.9375 C-41.09464379 139.29212334 -42.37590521 140.64758243 -43.65625 142.00390625 C-44.2646875 142.64730957 -44.873125 143.29071289 -45.5 143.95361328 C-47.85511377 146.46653665 -50.10943584 149.05802164 -52.35546875 151.66796875 C-55.20204758 154.91671325 -58.14288342 158.07943231 -61.07006836 161.25537109 C-63.71709304 164.13314797 -66.32193765 167.03867768 -68.875 170 C-71.54827744 173.08699895 -74.37307183 175.96001853 -77.2878418 178.81787109 C-79.03946247 180.60045065 -80.6646491 182.43817527 -82.28515625 184.33984375 C-86.34811409 189.01100951 -90.67525786 193.38497174 -95.0625 197.75 C-95.82240234 198.51376953 -96.58230469 199.27753906 -97.36523438 200.06445312 C-101.57383361 204.26586432 -105.86910186 208.3000321 -110.3762207 212.17944336 C-112.54611124 214.05064451 -114.64530107 215.99352353 -116.75 217.9375 C-131.98206483 231.63473081 -148.46426855 243.18510857 -167.125 251.6875 C-167.74874512 251.97641113 -168.37249023 252.26532227 -169.01513672 252.56298828 C-178.86984059 257.06125485 -188.46073761 259.15458121 -199.125 260.6875 C-200.05441406 260.87183594 -200.98382813 261.05617188 -201.94140625 261.24609375 C-224.77605023 264.41212414 -249.44884796 260.79395527 -268.125 246.6875 C-278.70723815 237.83600174 -283.1819159 228.06142513 -284.4140625 214.5078125 C-285.24453439 195.23212295 -275.78673607 177.68989048 -263.125 163.6875 C-256.09953723 156.09990612 -249.0182101 149.07388399 -240.125 143.6875 C-239.30104736 143.17823975 -239.30104736 143.17823975 -238.46044922 142.65869141 C-221.25887774 132.11849003 -202.61144664 125.61584627 -183.125 120.6875 C-182.35929687 120.49172363 -181.59359375 120.29594727 -180.8046875 120.09423828 C-158.87751767 114.62677106 -136.62789207 113.41311455 -114.125 113.4375 C-113.22982666 113.43818481 -112.33465332 113.43886963 -111.41235352 113.4395752 C-93.17520857 113.48559901 -75.07331734 114.32692246 -56.9375 116.25 C-52.00349533 116.77303722 -47.06848472 117.26166495 -42.125 117.6875 C-41.22523438 117.77499512 -40.32546875 117.86249023 -39.3984375 117.95263672 C-35.37855786 118.18757561 -33.42192237 117.89511667 -30.0859375 115.5625 C-29.23257813 114.61375 -28.37921875 113.665 -27.5 112.6875 C-26.21222656 111.2953125 -26.21222656 111.2953125 -24.8984375 109.875 C-23.45094774 108.22600309 -22.01932897 106.56429824 -20.59083557 104.89881897 C-16.40642886 100.05244531 -12.0373695 95.45316562 -7.50390625 90.93359375 C-6.80031479 90.22904556 -6.09672333 89.52449738 -5.37181091 88.79859924 C-3.89485352 87.32096633 -2.41665258 85.84457543 -0.93725586 84.36938477 C1.30665085 82.13083519 3.54516704 79.88699527 5.78320312 77.64257812 C7.22884618 76.19759596 8.67479945 74.75292408 10.12109375 73.30859375 C10.7796788 72.64798447 11.43826385 71.98737518 12.11680603 71.30674744 C16.54289478 66.90254423 21.14332189 62.7595996 25.875 58.6875 C26.93518832 57.75049904 27.99407846 56.81202377 29.05078125 55.87109375 C47.96911957 39.2195933 69.85055068 21.69269196 94.875 15.6875 C93.78598389 15.61233154 92.69696777 15.53716309 91.57495117 15.4597168 C87.36047333 15.1679936 83.14625097 14.87270655 78.93209839 14.57632446 C77.01168036 14.44159232 75.09120847 14.30762593 73.17068481 14.17440796 C63.44111994 13.49819725 53.71816158 12.81917942 44.015625 11.8203125 C11.25954287 8.4868922 -23.62723143 6.4755604 -56.125 12.6875 C-56.93146973 12.83735352 -57.73793945 12.98720703 -58.56884766 13.14160156 C-72.19746678 15.76645522 -84.10361146 20.07179525 -95.125 28.6875 C-96.19041016 29.48800781 -96.19041016 29.48800781 -97.27734375 30.3046875 C-104.61362534 36.19061016 -111.28534433 45.2921157 -113.125 54.6875 C-113.70759221 60.60081096 -114.05273118 65.76331682 -111.4375 71.1875 C-109.05897534 73.75887801 -106.67198481 76.28201435 -104.125 78.6875 C-105.125 79.6875 -105.125 79.6875 -108.1875 80.125 C-114.62967022 79.40920331 -118.41235729 75.77044384 -122.4375 70.875 C-127.79756459 60.75043355 -128.75856079 49.964208 -126.5390625 38.71875 C-124.1350592 31.74934595 -119.28465329 26.79000524 -114.125 21.6875 C-112.99578125 20.52541016 -112.99578125 20.52541016 -111.84375 19.33984375 C-82.56366589 -9.11063798 -37.00640635 -3.34737962 0 0 Z M-167.0625 126.4375 C-168.16835449 126.60813965 -169.27420898 126.7787793 -170.41357422 126.95458984 C-198.85687289 131.60015095 -230.40595641 142.09852023 -252.125 161.6875 C-252.89199219 162.36167969 -253.65898437 163.03585937 -254.44921875 163.73046875 C-263.63626359 172.29360562 -269.44668439 182.75895108 -273.125 194.6875 C-273.455 195.6775 -273.785 196.6675 -274.125 197.6875 C-275.18832589 208.24480703 -273.45898138 216.86216761 -267.0703125 225.44921875 C-257.41815516 236.6210064 -246.78145191 242.6853176 -232.125 244.6875 C-227.00005657 245.01512852 -221.88377953 245.07803394 -216.75 245.0625 C-216.04324127 245.06162384 -215.33648254 245.06074768 -214.60830688 245.05984497 C-171.28251414 244.88308489 -137.19937479 223.19146861 -106.125 194.6875 C-105.12912472 193.78491514 -104.13302109 192.88258218 -103.13671875 191.98046875 C-92.56469746 182.3640458 -82.01899131 172.50788559 -72.79296875 161.57421875 C-69.87238068 158.27060274 -66.67864779 155.23444706 -63.54296875 152.13671875 C-60.81850082 149.3770396 -58.28952624 146.49569343 -55.76953125 143.55078125 C-53.59077684 141.08221627 -51.25069517 138.80184469 -48.90234375 136.49609375 C-45.82346012 133.3630759 -42.97769265 130.02575735 -40.125 126.6875 C-43.69790807 124.30556129 -46.71882779 124.00087743 -50.87890625 123.578125 C-51.70129288 123.49403381 -52.5236795 123.40994263 -53.37098694 123.32330322 C-65.19616038 122.2579783 -77.07419853 122.38719941 -88.93676758 122.42675781 C-92.34807201 122.43804952 -95.7590607 122.43143518 -99.17035389 122.41987991 C-121.83402394 122.35483321 -144.62880105 122.94467239 -167.0625 126.4375 Z " fill="#21CEE9" transform="translate(315.125,126.3125)"/>
<path d="M0 0 C0.33 0 0.66 0 1 0 C1 13.53 1 27.06 1 41 C-12.53 41 -26.06 41 -40 41 C-36.77794772 39.38897386 -33.66489916 38.09649079 -30.3125 36.8125 C-16.32964928 30.99481758 -7.86955879 20.70813891 -2 7 C-1.17794005 4.65968578 -0.55034658 2.42152494 0 0 Z " fill="#000000" transform="translate(511,471)"/>
<path d="M0 0 C13.53 0 27.06 0 41 0 C41 13.53 41 27.06 41 41 C39.38897386 37.77794772 38.09649079 34.66489916 36.8125 31.3125 C30.99481758 17.32964928 20.70813891 8.86955879 7 3 C4.65968578 2.17794005 2.42152494 1.55034658 0 1 C0 0.67 0 0.34 0 0 Z " fill="#000000" transform="translate(471,0)"/>
<path d="M0 0 C13.53 0 27.06 0 41 0 C37.79199197 1.60400401 34.71684939 2.86409113 31.375 4.125 C17.26836142 9.97409405 8.95399223 20.31691228 3 34 C2.17531121 36.34054533 1.55058312 38.57743426 1 41 C0.67 41 0.34 41 0 41 C0 27.47 0 13.94 0 0 Z " fill="#000000" transform="translate(0,0)"/>
<path d="M0 0 C1.61102614 3.22205228 2.90350921 6.33510084 4.1875 9.6875 C10.00518242 23.67035072 20.29186109 32.13044121 34 38 C36.34031422 38.82205995 38.57847506 39.44965342 41 40 C41 40.33 41 40.66 41 41 C27.47 41 13.94 41 0 41 C0 27.47 0 13.94 0 0 Z " fill="#000000" transform="translate(0,471)"/>
</svg>
